{
    "asset" : {
        "generator" : "Khronos glTF Blender I/O v1.8.19",
        "version" : "2.0"
    },
    "scene" : 0,
    "scenes" : [
        {
            "name" : "Scene",
            "nodes" : [
                0
            ]
        }
    ],
    "nodes" : [
        {
            "mesh" : 0,
            "name" : "Sphere.003",
            "rotation" : [
                -0.06328163295984268,
                0.7042694687843323,
                0.06328162550926208,
                0.7042694091796875
            ],
            "scale" : [
                0.42740529775619507,
                0.6631386876106262,
                0.2766636610031128
            ],
            "translation" : [
                0.8092274069786072,
                5.12785005569458,
                0.23972409963607788
            ]
        }
    ],
    "materials" : [
        {
            "doubleSided" : true,
            "name" : "Material.004",
            "pbrMetallicRoughness" : {
                "baseColorFactor" : [
                    0.2050103396177292,
                    0.4686412215232849,
                    0.8000000715255737,
                    1
                ],
                "metallicFactor" : 0,
                "roughnessFactor" : 0.5
            }
        },
        {
            "doubleSided" : true,
            "name" : "Material.003",
            "pbrMetallicRoughness" : {
                "baseColorFactor" : [
                    0.7991029620170593,
                    0.24620111286640167,
                    0.11953850090503693,
                    1
                ],
                "metallicFactor" : 0,
                "roughnessFactor" : 0.5
            }
        },
        {
            "doubleSided" : true,
            "name" : "Material.002",
            "pbrMetallicRoughness" : {
                "baseColorFactor" : [
                    0.7991029620170593,
                    0.24620111286640167,
                    0.11953850090503693,
                    1
                ],
                "metallicFactor" : 0,
                "roughnessFactor" : 0.5
            }
        },
        {
            "doubleSided" : true,
            "name" : "Material.001",
            "pbrMetallicRoughness" : {
                "baseColorFactor" : [
                    0.7991029620170593,
                    0.24620111286640167,
                    0.11953850090503693,
                    1
                ],
                "metallicFactor" : 0,
                "roughnessFactor" : 0.5
            }
        }
    ],
    "meshes" : [
        {
            "name" : "Sphere.003",
            "primitives" : [
                {
                    "attributes" : {
                        "POSITION" : 0,
                        "NORMAL" : 1,
                        "TEXCOORD_0" : 2
                    },
                    "indices" : 3,
                    "material" : 0
                },
                {
                    "attributes" : {
                        "POSITION" : 4,
                        "NORMAL" : 5,
                        "TEXCOORD_0" : 6
                    },
                    "indices" : 7,
                    "material" : 1
                },
                {
                    "attributes" : {
                        "POSITION" : 8,
                        "NORMAL" : 9,
                        "TEXCOORD_0" : 10
                    },
                    "indices" : 11,
                    "material" : 2
                },
                {
                    "attributes" : {
                        "POSITION" : 12,
                        "NORMAL" : 13,
                        "TEXCOORD_0" : 14
                    },
                    "indices" : 15,
                    "material" : 3
                }
            ]
        }
    ],
    "accessors" : [
        {
            "bufferView" : 0,
            "componentType" : 5126,
            "count" : 38828,
            "max" : [
                2.978579044342041,
                5.192156791687012,
                15.53226089477539
            ],
            "min" : [
                -1.8807623386383057,
                -6.068639278411865,
                -7.6066741943359375
            ],
            "type" : "VEC3"
        },
        {
            "bufferView" : 1,
            "componentType" : 5126,
            "count" : 38828,
            "type" : "VEC3"
        },
        {
            "bufferView" : 2,
            "componentType" : 5126,
            "count" : 38828,
            "type" : "VEC2"
        },
        {
            "bufferView" : 3,
            "componentType" : 5123,
            "count" : 58140,
            "type" : "SCALAR"
        },
        {
            "bufferView" : 4,
            "componentType" : 5126,
            "count" : 1986,
            "max" : [
                2.7230751514434814,
                6.365313529968262,
                2.391180992126465
            ],
            "min" : [
                -1.6013102531433105,
                -6.26846981048584,
                -8.873546600341797
            ],
            "type" : "VEC3"
        },
        {
            "bufferView" : 5,
            "componentType" : 5126,
            "count" : 1986,
            "type" : "VEC3"
        },
        {
            "bufferView" : 6,
            "componentType" : 5126,
            "count" : 1986,
            "type" : "VEC2"
        },
        {
            "bufferView" : 7,
            "componentType" : 5123,
            "count" : 3072,
            "type" : "SCALAR"
        },
        {
            "bufferView" : 8,
            "componentType" : 5126,
            "count" : 1986,
            "max" : [
                2.7230749130249023,
                5.870422840118408,
                8.938631057739258
            ],
            "min" : [
                -1.6013104915618896,
                -6.763360977172852,
                -2.326096296310425
            ],
            "type" : "VEC3"
        },
        {
            "bufferView" : 9,
            "componentType" : 5126,
            "count" : 1986,
            "type" : "VEC3"
        },
        {
            "bufferView" : 10,
            "componentType" : 5126,
            "count" : 1986,
            "type" : "VEC2"
        },
        {
            "bufferView" : 11,
            "componentType" : 5123,
            "count" : 3072,
            "type" : "SCALAR"
        },
        {
            "bufferView" : 12,
            "componentType" : 5126,
            "count" : 1986,
            "max" : [
                2.7230746746063232,
                5.376152038574219,
                15.47787094116211
            ],
            "min" : [
                -1.6013107299804688,
                -7.257631301879883,
                4.213143348693848
            ],
            "type" : "VEC3"
        },
        {
            "bufferView" : 13,
            "componentType" : 5126,
            "count" : 1986,
            "type" : "VEC3"
        },
        {
            "bufferView" : 14,
            "componentType" : 5126,
            "count" : 1986,
            "type" : "VEC2"
        },
        {
            "bufferView" : 15,
            "componentType" : 5123,
            "count" : 3072,
            "type" : "SCALAR"
        }
    ],
    "bufferViews" : [
        {
            "buffer" : 0,
            "byteLength" : 465936,
            "byteOffset" : 0
        },
        {
            "buffer" : 0,
            "byteLength" : 465936,
            "byteOffset" : 465936
        },
        {
            "buffer" : 0,
            "byteLength" : 310624,
            "byteOffset" : 931872
        },
        {
            "buffer" : 0,
            "byteLength" : 116280,
            "byteOffset" : 1242496
        },
        {
            "buffer" : 0,
            "byteLength" : 23832,
            "byteOffset" : 1358776
        },
        {
            "buffer" : 0,
            "byteLength" : 23832,
            "byteOffset" : 1382608
        },
        {
            "buffer" : 0,
            "byteLength" : 15888,
            "byteOffset" : 1406440
        },
        {
            "buffer" : 0,
            "byteLength" : 6144,
            "byteOffset" : 1422328
        },
        {
            "buffer" : 0,
            "byteLength" : 23832,
            "byteOffset" : 1428472
        },
        {
            "buffer" : 0,
            "byteLength" : 23832,
            "byteOffset" : 1452304
        },
        {
            "buffer" : 0,
            "byteLength" : 15888,
            "byteOffset" : 1476136
        },
        {
            "buffer" : 0,
            "byteLength" : 6144,
            "byteOffset" : 1492024
        },
        {
            "buffer" : 0,
            "byteLength" : 23832,
            "byteOffset" : 1498168
        },
        {
            "buffer" : 0,
            "byteLength" : 23832,
            "byteOffset" : 1522000
        },
        {
            "buffer" : 0,
            "byteLength" : 15888,
            "byteOffset" : 1545832
        },
        {
            "buffer" : 0,
            "byteLength" : 6144,
            "byteOffset" : 1561720
        }
    ],
    "buffers" : [
        {
            "byteLength" : 1567864,
            "uri" : "data:application/octet-stream;base64,"
        }
    ]
}
