{
    "asset" : {
        "generator" : "Khronos glTF Blender I/O v1.8.19",
        "version" : "2.0"
    },
    "scene" : 0,
    "scenes" : [
        {
            "name" : "Scene",
            "nodes" : [
                0
            ]
        }
    ],
    "nodes" : [
        {
            "mesh" : 0,
            "name" : "Cylinder.004",
            "rotation" : [
                -0.177372545003891,
                0,
                0,
                0.9841437935829163
            ],
            "scale" : [
                0.2380581498146057,
                0.078898124396801,
                0.2380581498146057
            ],
            "translation" : [
                0,
                2.2341926097869873,
                -0.899695873260498
            ]
        }
    ],
    "materials" : [
        {
            "doubleSided" : true,
            "name" : "Material.001",
            "pbrMetallicRoughness" : {
                "baseColorFactor" : [
                    0.4292253851890564,
                    0.01667984202504158,
                    0.022695496678352356,
                    1
                ],
                "metallicFactor" : 0,
                "roughnessFactor" : 0.5
            }
        },
        {
            "doubleSided" : true,
            "name" : "Material.002",
            "pbrMetallicRoughness" : {
                "baseColorFactor" : [
                    0.01691325381398201,
                    0.15978580713272095,
                    0.8000000715255737,
                    1
                ],
                "metallicFactor" : 0,
                "roughnessFactor" : 0.5
            }
        }
    ],
    "meshes" : [
        {
            "name" : "Cylinder.006",
            "primitives" : [
                {
                    "attributes" : {
                        "POSITION" : 0,
                        "NORMAL" : 1,
                        "TEXCOORD_0" : 2
                    },
                    "indices" : 3,
                    "material" : 0
                },
                {
                    "attributes" : {
                        "POSITION" : 4,
                        "NORMAL" : 5,
                        "TEXCOORD_0" : 6
                    },
                    "indices" : 7,
                    "material" : 1
                }
            ]
        }
    ],
    "accessors" : [
        {
            "bufferView" : 0,
            "componentType" : 5126,
            "count" : 11840,
            "max" : [
                1.4182360172271729,
                23.35826873779297,
                6.975534915924072
            ],
            "min" : [
                -1.4182347059249878,
                -29.64398765563965,
                -7.713569164276123
            ],
            "type" : "VEC3"
        },
        {
            "bufferView" : 1,
            "componentType" : 5126,
            "count" : 11840,
            "type" : "VEC3"
        },
        {
            "bufferView" : 2,
            "componentType" : 5126,
            "count" : 11840,
            "type" : "VEC2"
        },
        {
            "bufferView" : 3,
            "componentType" : 5123,
            "count" : 18348,
            "type" : "SCALAR"
        },
        {
            "bufferView" : 4,
            "componentType" : 5126,
            "count" : 29692,
            "max" : [
                1.5897034406661987,
                19.27204132080078,
                6.697522163391113
            ],
            "min" : [
                -1.656553030014038,
                -25.88507080078125,
                -6.926916122436523
            ],
            "type" : "VEC3"
        },
        {
            "bufferView" : 5,
            "componentType" : 5126,
            "count" : 29692,
            "type" : "VEC3"
        },
        {
            "bufferView" : 6,
            "componentType" : 5126,
            "count" : 29692,
            "type" : "VEC2"
        },
        {
            "bufferView" : 7,
            "componentType" : 5123,
            "count" : 44460,
            "type" : "SCALAR"
        }
    ],
    "bufferViews" : [
        {
            "buffer" : 0,
            "byteLength" : 142080,
            "byteOffset" : 0
        },
        {
            "buffer" : 0,
            "byteLength" : 142080,
            "byteOffset" : 142080
        },
        {
            "buffer" : 0,
            "byteLength" : 94720,
            "byteOffset" : 284160
        },
        {
            "buffer" : 0,
            "byteLength" : 36696,
            "byteOffset" : 378880
        },
        {
            "buffer" : 0,
            "byteLength" : 356304,
            "byteOffset" : 415576
        },
        {
            "buffer" : 0,
            "byteLength" : 356304,
            "byteOffset" : 771880
        },
        {
            "buffer" : 0,
            "byteLength" : 237536,
            "byteOffset" : 1128184
        },
        {
            "buffer" : 0,
            "byteLength" : 88920,
            "byteOffset" : 1365720
        }
    ],
    "buffers" : [
        {
            "byteLength" : 1454640,
            "uri" : "data:application/octet-stream;base64,"
        }
    ]
}
