{
    "asset" : {
        "generator" : "Khronos glTF Blender I/O v1.8.19",
        "version" : "2.0"
    },
    "scene" : 0,
    "scenes" : [
        {
            "name" : "Scene",
            "nodes" : [
                0
            ]
        }
    ],
    "nodes" : [
        {
            "mesh" : 0,
            "name" : "Cylinder",
            "scale" : [
                0.17045040428638458,
                0.10719236731529236,
                0.41513240337371826
            ],
            "translation" : [
                0,
                5.165624141693115,
                0
            ]
        }
    ],
    "materials" : [
        {
            "doubleSided" : true,
            "name" : "Material.001",
            "pbrMetallicRoughness" : {
                "baseColorFactor" : [
                    0.8000000715255737,
                    0.03949738293886185,
                    0.014718015678226948,
                    1
                ],
                "metallicFactor" : 0,
                "roughnessFactor" : 0.5
            }
        },
        {
            "doubleSided" : true,
            "name" : "Material.002",
            "pbrMetallicRoughness" : {
                "baseColorFactor" : [
                    0.034126732498407364,
                    0.3434297740459442,
                    0.8000000715255737,
                    1
                ],
                "metallicFactor" : 0,
                "roughnessFactor" : 0.5
            }
        }
    ],
    "meshes" : [
        {
            "name" : "Cylinder.001",
            "primitives" : [
                {
                    "attributes" : {
                        "POSITION" : 0,
                        "NORMAL" : 1,
                        "TEXCOORD_0" : 2
                    },
                    "indices" : 3,
                    "material" : 0
                },
                {
                    "attributes" : {
                        "POSITION" : 4,
                        "NORMAL" : 5,
                        "TEXCOORD_0" : 6
                    },
                    "indices" : 7,
                    "material" : 1
                }
            ]
        }
    ],
    "accessors" : [
        {
            "bufferView" : 0,
            "componentType" : 5126,
            "count" : 10304,
            "max" : [
                1.0000001192092896,
                29.462182998657227,
                4.229085922241211
            ],
            "min" : [
                -1.0000001192092896,
                -47.47783660888672,
                -4.197803497314453
            ],
            "type" : "VEC3"
        },
        {
            "bufferView" : 1,
            "componentType" : 5126,
            "count" : 10304,
            "type" : "VEC3"
        },
        {
            "bufferView" : 2,
            "componentType" : 5126,
            "count" : 10304,
            "type" : "VEC2"
        },
        {
            "bufferView" : 3,
            "componentType" : 5123,
            "count" : 14784,
            "type" : "SCALAR"
        },
        {
            "bufferView" : 4,
            "componentType" : 5126,
            "count" : 41112,
            "max" : [
                1.2108094692230225,
                15.665160179138184,
                3.496156692504883
            ],
            "min" : [
                -1.59751558303833,
                -37.45406723022461,
                -3.4208011627197266
            ],
            "type" : "VEC3"
        },
        {
            "bufferView" : 5,
            "componentType" : 5126,
            "count" : 41112,
            "type" : "VEC3"
        },
        {
            "bufferView" : 6,
            "componentType" : 5126,
            "count" : 41112,
            "type" : "VEC2"
        },
        {
            "bufferView" : 7,
            "componentType" : 5123,
            "count" : 61560,
            "type" : "SCALAR"
        }
    ],
    "bufferViews" : [
        {
            "buffer" : 0,
            "byteLength" : 123648,
            "byteOffset" : 0
        },
        {
            "buffer" : 0,
            "byteLength" : 123648,
            "byteOffset" : 123648
        },
        {
            "buffer" : 0,
            "byteLength" : 82432,
            "byteOffset" : 247296
        },
        {
            "buffer" : 0,
            "byteLength" : 29568,
            "byteOffset" : 329728
        },
        {
            "buffer" : 0,
            "byteLength" : 493344,
            "byteOffset" : 359296
        },
        {
            "buffer" : 0,
            "byteLength" : 493344,
            "byteOffset" : 852640
        },
        {
            "buffer" : 0,
            "byteLength" : 328896,
            "byteOffset" : 1345984
        },
        {
            "buffer" : 0,
            "byteLength" : 123120,
            "byteOffset" : 1674880
        }
    ],
    "buffers" : [
        {
            "byteLength" : 1798000,
            "uri" : "data:application/octet-stream;base64,"
        }
    ]
}
