{
    "asset" : {
        "generator" : "Khronos glTF Blender I/O v3.2.43",
        "version" : "2.0"
    },
    "scene" : 0,
    "scenes" : [
        {
            "name" : "Scene",
            "nodes" : [
                0
            ]
        }
    ],
    "nodes" : [
        {
            "mesh" : 0,
            "name" : "Cube.025",
            "rotation" : [
                0,
                1,
                0,
                0
            ],
            "scale" : [
                -1,
                -3,
                -1
            ],
            "translation" : [
                0,
                3.700000047683716,
                0
            ]
        }
    ],
    "materials" : [
        {
            "doubleSided" : true,
            "name" : "Material.003",
            "pbrMetallicRoughness" : {
                "baseColorFactor" : [
                    0.415470689535141,
                    0.2459944635629654,
                    0.38044390082359314,
                    1
                ],
                "metallicFactor" : 0,
                "roughnessFactor" : 0.5
            }
        },
        {
            "doubleSided" : true,
            "name" : "Material.002",
            "pbrMetallicRoughness" : {
                "baseColorFactor" : [
                    0.04518593102693558,
                    0.122138611972332,
                    0.3324514925479889,
                    1
                ],
                "metallicFactor" : 0,
                "roughnessFactor" : 0.5
            }
        },
        {
            "doubleSided" : true,
            "name" : "Material.001",
            "pbrMetallicRoughness" : {
                "baseColorFactor" : [
                    0.02217315137386322,
                    0.3005433976650238,
                    0.799102783203125,
                    1
                ],
                "metallicFactor" : 0,
                "roughnessFactor" : 0.5
            }
        },
        {
            "doubleSided" : true,
            "name" : "Material.004",
            "pbrMetallicRoughness" : {
                "baseColorFactor" : [
                    0.0754028856754303,
                    0.23568004369735718,
                    0.24955840408802032,
                    1
                ],
                "metallicFactor" : 0,
                "roughnessFactor" : 0.5
            }
        }
    ],
    "meshes" : [
        {
            "name" : "Cube.026",
            "primitives" : [
                {
                    "attributes" : {
                        "POSITION" : 0,
                        "NORMAL" : 1,
                        "TEXCOORD_0" : 2
                    },
                    "indices" : 3,
                    "material" : 0
                },
                {
                    "attributes" : {
                        "POSITION" : 4,
                        "NORMAL" : 5,
                        "TEXCOORD_0" : 6
                    },
                    "indices" : 7,
                    "material" : 1
                },
                {
                    "attributes" : {
                        "POSITION" : 8,
                        "NORMAL" : 9,
                        "TEXCOORD_0" : 10
                    },
                    "indices" : 7,
                    "material" : 2
                },
                {
                    "attributes" : {
                        "POSITION" : 11,
                        "NORMAL" : 12,
                        "TEXCOORD_0" : 13
                    },
                    "indices" : 14,
                    "material" : 3
                }
            ]
        }
    ],
    "accessors" : [
        {
            "bufferView" : 0,
            "componentType" : 5126,
            "count" : 49035,
            "max" : [
                5,
                1,
                5
            ],
            "min" : [
                -5,
                -0.9264342188835144,
                -5
            ],
            "type" : "VEC3"
        },
        {
            "bufferView" : 1,
            "componentType" : 5126,
            "count" : 49035,
            "type" : "VEC3"
        },
        {
            "bufferView" : 2,
            "componentType" : 5126,
            "count" : 49035,
            "type" : "VEC2"
        },
        {
            "bufferView" : 3,
            "componentType" : 5123,
            "count" : 75036,
            "type" : "SCALAR"
        },
        {
            "bufferView" : 4,
            "componentType" : 5126,
            "count" : 24,
            "max" : [
                5,
                1.066666603088379,
                5
            ],
            "min" : [
                -5,
                0.9999999403953552,
                -5
            ],
            "type" : "VEC3"
        },
        {
            "bufferView" : 5,
            "componentType" : 5126,
            "count" : 24,
            "type" : "VEC3"
        },
        {
            "bufferView" : 6,
            "componentType" : 5126,
            "count" : 24,
            "type" : "VEC2"
        },
        {
            "bufferView" : 7,
            "componentType" : 5123,
            "count" : 36,
            "type" : "SCALAR"
        },
        {
            "bufferView" : 8,
            "componentType" : 5126,
            "count" : 24,
            "max" : [
                5,
                1.399999976158142,
                5
            ],
            "min" : [
                -5,
                1.0666667222976685,
                -5
            ],
            "type" : "VEC3"
        },
        {
            "bufferView" : 9,
            "componentType" : 5126,
            "count" : 24,
            "type" : "VEC3"
        },
        {
            "bufferView" : 10,
            "componentType" : 5126,
            "count" : 24,
            "type" : "VEC2"
        },
        {
            "bufferView" : 11,
            "componentType" : 5126,
            "count" : 1024,
            "max" : [
                5.010000228881836,
                1.355320692062378,
                5.010000228881836
            ],
            "min" : [
                -5.010000228881836,
                -0.3133333623409271,
                -5.010000228881836
            ],
            "type" : "VEC3"
        },
        {
            "bufferView" : 12,
            "componentType" : 5126,
            "count" : 1024,
            "type" : "VEC3"
        },
        {
            "bufferView" : 13,
            "componentType" : 5126,
            "count" : 1024,
            "type" : "VEC2"
        },
        {
            "bufferView" : 14,
            "componentType" : 5123,
            "count" : 2880,
            "type" : "SCALAR"
        }
    ],
    "bufferViews" : [
        {
            "buffer" : 0,
            "byteLength" : 588420,
            "byteOffset" : 0
        },
        {
            "buffer" : 0,
            "byteLength" : 588420,
            "byteOffset" : 588420
        },
        {
            "buffer" : 0,
            "byteLength" : 392280,
            "byteOffset" : 1176840
        },
        {
            "buffer" : 0,
            "byteLength" : 150072,
            "byteOffset" : 1569120
        },
        {
            "buffer" : 0,
            "byteLength" : 288,
            "byteOffset" : 1719192
        },
        {
            "buffer" : 0,
            "byteLength" : 288,
            "byteOffset" : 1719480
        },
        {
            "buffer" : 0,
            "byteLength" : 192,
            "byteOffset" : 1719768
        },
        {
            "buffer" : 0,
            "byteLength" : 72,
            "byteOffset" : 1719960
        },
        {
            "buffer" : 0,
            "byteLength" : 288,
            "byteOffset" : 1720032
        },
        {
            "buffer" : 0,
            "byteLength" : 288,
            "byteOffset" : 1720320
        },
        {
            "buffer" : 0,
            "byteLength" : 192,
            "byteOffset" : 1720608
        },
        {
            "buffer" : 0,
            "byteLength" : 12288,
            "byteOffset" : 1720800
        },
        {
            "buffer" : 0,
            "byteLength" : 12288,
            "byteOffset" : 1733088
        },
        {
            "buffer" : 0,
            "byteLength" : 8192,
            "byteOffset" : 1745376
        },
        {
            "buffer" : 0,
            "byteLength" : 5760,
            "byteOffset" : 1753568
        }
    ],
    "buffers" : [
        {
            "byteLength" : 1759328,
            "uri" : "data:application/octet-stream;base64,"
        }
    ]
}
