{
    "asset" : {
        "generator" : "Khronos glTF Blender I/O v3.2.43",
        "version" : "2.0"
    },
    "scene" : 0,
    "scenes" : [
        {
            "name" : "Scene",
            "nodes" : [
                0
            ]
        }
    ],
    "nodes" : [
        {
            "mesh" : 0,
            "name" : "Cube.013",
            "rotation" : [
                0,
                1,
                0,
                0
            ],
            "scale" : [
                -1,
                -1,
                -1
            ],
            "translation" : [
                0,
                1.1000005006790161,
                0
            ]
        }
    ],
    "materials" : [
        {
            "doubleSided" : true,
            "name" : "Material.002",
            "pbrMetallicRoughness" : {}
        },
        {
            "doubleSided" : true,
            "name" : "Material.004",
            "pbrMetallicRoughness" : {}
        },
        {
            "doubleSided" : true,
            "name" : "Material.003",
            "pbrMetallicRoughness" : {}
        }
    ],
    "meshes" : [
        {
            "name" : "Cube.013",
            "primitives" : [
                {
                    "attributes" : {
                        "POSITION" : 0,
                        "NORMAL" : 1,
                        "TEXCOORD_0" : 2
                    },
                    "indices" : 3,
                    "material" : 0
                },
                {
                    "attributes" : {
                        "POSITION" : 4,
                        "NORMAL" : 5,
                        "TEXCOORD_0" : 6
                    },
                    "indices" : 7,
                    "material" : 1
                },
                {
                    "attributes" : {
                        "POSITION" : 8,
                        "NORMAL" : 9,
                        "TEXCOORD_0" : 10
                    },
                    "indices" : 11,
                    "material" : 2
                }
            ]
        }
    ],
    "accessors" : [
        {
            "bufferView" : 0,
            "componentType" : 5126,
            "count" : 49429,
            "max" : [
                5,
                1,
                5
            ],
            "min" : [
                -5,
                -1,
                -5
            ],
            "type" : "VEC3"
        },
        {
            "bufferView" : 1,
            "componentType" : 5126,
            "count" : 49429,
            "type" : "VEC3"
        },
        {
            "bufferView" : 2,
            "componentType" : 5126,
            "count" : 49429,
            "type" : "VEC2"
        },
        {
            "bufferView" : 3,
            "componentType" : 5123,
            "count" : 76128,
            "type" : "SCALAR"
        },
        {
            "bufferView" : 4,
            "componentType" : 5126,
            "count" : 24,
            "max" : [
                5,
                1.200000524520874,
                5
            ],
            "min" : [
                -5,
                1.0000004768371582,
                -5
            ],
            "type" : "VEC3"
        },
        {
            "bufferView" : 5,
            "componentType" : 5126,
            "count" : 24,
            "type" : "VEC3"
        },
        {
            "bufferView" : 6,
            "componentType" : 5126,
            "count" : 24,
            "type" : "VEC2"
        },
        {
            "bufferView" : 7,
            "componentType" : 5123,
            "count" : 36,
            "type" : "SCALAR"
        },
        {
            "bufferView" : 8,
            "componentType" : 5126,
            "count" : 1391,
            "max" : [
                5.010000228881836,
                0.7900006175041199,
                5.010000228881836
            ],
            "min" : [
                -5.010000228881836,
                -0.18999958038330078,
                -5.010000228881836
            ],
            "type" : "VEC3"
        },
        {
            "bufferView" : 9,
            "componentType" : 5126,
            "count" : 1391,
            "type" : "VEC3"
        },
        {
            "bufferView" : 10,
            "componentType" : 5126,
            "count" : 1391,
            "type" : "VEC2"
        },
        {
            "bufferView" : 11,
            "componentType" : 5123,
            "count" : 1800,
            "type" : "SCALAR"
        }
    ],
    "bufferViews" : [
        {
            "buffer" : 0,
            "byteLength" : 593148,
            "byteOffset" : 0
        },
        {
            "buffer" : 0,
            "byteLength" : 593148,
            "byteOffset" : 593148
        },
        {
            "buffer" : 0,
            "byteLength" : 395432,
            "byteOffset" : 1186296
        },
        {
            "buffer" : 0,
            "byteLength" : 152256,
            "byteOffset" : 1581728
        },
        {
            "buffer" : 0,
            "byteLength" : 288,
            "byteOffset" : 1733984
        },
        {
            "buffer" : 0,
            "byteLength" : 288,
            "byteOffset" : 1734272
        },
        {
            "buffer" : 0,
            "byteLength" : 192,
            "byteOffset" : 1734560
        },
        {
            "buffer" : 0,
            "byteLength" : 72,
            "byteOffset" : 1734752
        },
        {
            "buffer" : 0,
            "byteLength" : 16692,
            "byteOffset" : 1734824
        },
        {
            "buffer" : 0,
            "byteLength" : 16692,
            "byteOffset" : 1751516
        },
        {
            "buffer" : 0,
            "byteLength" : 11128,
            "byteOffset" : 1768208
        },
        {
            "buffer" : 0,
            "byteLength" : 3600,
            "byteOffset" : 1779336
        }
    ],
    "buffers" : [
        {
            "byteLength" : 1782936,
            "uri" : "data:application/octet-stream;base64,"
        }
    ]
}
