{
    "asset" : {
        "generator" : "Khronos glTF Blender I/O v3.2.43",
        "version" : "2.0"
    },
    "scene" : 0,
    "scenes" : [
        {
            "name" : "Scene",
            "nodes" : [
                0
            ]
        }
    ],
    "nodes" : [
        {
            "mesh" : 0,
            "name" : "Cube",
            "scale" : [
                5,
                0.2515738606452942,
                5
            ],
            "translation" : [
                0,
                0.9377374053001404,
                0
            ]
        }
    ],
    "materials" : [
        {
            "doubleSided" : true,
            "name" : "Material.001",
            "pbrMetallicRoughness" : {
                "baseColorFactor" : [
                    0.8000000715255737,
                    0.16983167827129364,
                    0.5700826048851013,
                    1
                ],
                "metallicFactor" : 0,
                "roughnessFactor" : 0.5
            }
        },
        {
            "doubleSided" : true,
            "name" : "Material.002",
            "pbrMetallicRoughness" : {
                "baseColorFactor" : [
                    0.20863664150238037,
                    0.20863668620586395,
                    0.20863686501979828,
                    1
                ],
                "metallicFactor" : 0,
                "roughnessFactor" : 0.5
            }
        }
    ],
    "meshes" : [
        {
            "name" : "Cube.001",
            "primitives" : [
                {
                    "attributes" : {
                        "POSITION" : 0,
                        "NORMAL" : 1,
                        "TEXCOORD_0" : 2
                    },
                    "indices" : 3,
                    "material" : 0
                },
                {
                    "attributes" : {
                        "POSITION" : 4,
                        "NORMAL" : 5,
                        "TEXCOORD_0" : 6
                    },
                    "indices" : 7,
                    "material" : 1
                }
            ]
        }
    ],
    "accessors" : [
        {
            "bufferView" : 0,
            "componentType" : 5126,
            "count" : 40955,
            "max" : [
                1,
                0.9840259552001953,
                1
            ],
            "min" : [
                -1,
                -1.7753565311431885,
                -1
            ],
            "type" : "VEC3"
        },
        {
            "bufferView" : 1,
            "componentType" : 5126,
            "count" : 40955,
            "type" : "VEC3"
        },
        {
            "bufferView" : 2,
            "componentType" : 5126,
            "count" : 40955,
            "type" : "VEC2"
        },
        {
            "bufferView" : 3,
            "componentType" : 5123,
            "count" : 62436,
            "type" : "SCALAR"
        },
        {
            "bufferView" : 4,
            "componentType" : 5126,
            "count" : 24,
            "max" : [
                0.9999999403953552,
                -1.51826810836792,
                0.9999999403953552
            ],
            "min" : [
                -0.9999999403953552,
                -2.5559463500976562,
                -0.9999999403953552
            ],
            "type" : "VEC3"
        },
        {
            "bufferView" : 5,
            "componentType" : 5126,
            "count" : 24,
            "type" : "VEC3"
        },
        {
            "bufferView" : 6,
            "componentType" : 5126,
            "count" : 24,
            "type" : "VEC2"
        },
        {
            "bufferView" : 7,
            "componentType" : 5123,
            "count" : 36,
            "type" : "SCALAR"
        }
    ],
    "bufferViews" : [
        {
            "buffer" : 0,
            "byteLength" : 491460,
            "byteOffset" : 0
        },
        {
            "buffer" : 0,
            "byteLength" : 491460,
            "byteOffset" : 491460
        },
        {
            "buffer" : 0,
            "byteLength" : 327640,
            "byteOffset" : 982920
        },
        {
            "buffer" : 0,
            "byteLength" : 124872,
            "byteOffset" : 1310560
        },
        {
            "buffer" : 0,
            "byteLength" : 288,
            "byteOffset" : 1435432
        },
        {
            "buffer" : 0,
            "byteLength" : 288,
            "byteOffset" : 1435720
        },
        {
            "buffer" : 0,
            "byteLength" : 192,
            "byteOffset" : 1436008
        },
        {
            "buffer" : 0,
            "byteLength" : 72,
            "byteOffset" : 1436200
        }
    ],
    "buffers" : [
        {
            "byteLength" : 1436272,
            "uri" : "data:application/octet-stream;base64,"
        }
    ]
}
