{
    "asset" : {
        "generator" : "Khronos glTF Blender I/O v3.2.43",
        "version" : "2.0"
    },
    "scene" : 0,
    "scenes" : [
        {
            "name" : "Scene",
            "nodes" : [
                0
            ]
        }
    ],
    "nodes" : [
        {
            "mesh" : 0,
            "name" : "Circle.003",
            "rotation" : [
                0,
                0,
                -0.7071068286895752,
                0.7071068286895752
            ],
            "scale" : [
                0.40000003576278687,
                1,
                0.800000011920929
            ],
            "translation" : [
                -5.010000228881836,
                6.860530853271484,
                2.310771942138672
            ]
        }
    ],
    "materials" : [
        {
            "doubleSided" : true,
            "name" : "Material.004",
            "pbrMetallicRoughness" : {
                "baseColorFactor" : [
                    0.2880227267742157,
                    0.03474840894341469,
                    0.8000000715255737,
                    1
                ],
                "metallicFactor" : 0,
                "roughnessFactor" : 0.5
            }
        },
        {
            "doubleSided" : true,
            "name" : "Material.001",
            "pbrMetallicRoughness" : {
                "baseColorFactor" : [
                    0.8000000715255737,
                    0.30937930941581726,
                    0.5886132121086121,
                    1
                ],
                "metallicFactor" : 0,
                "roughnessFactor" : 0.5
            }
        },
        {
            "doubleSided" : true,
            "name" : "Material.002",
            "pbrMetallicRoughness" : {
                "baseColorFactor" : [
                    0.08897881954908371,
                    0.08897881954908371,
                    0.08897881954908371,
                    1
                ],
                "metallicFactor" : 0,
                "roughnessFactor" : 0.5
            }
        }
    ],
    "meshes" : [
        {
            "name" : "Circle.017",
            "primitives" : [
                {
                    "attributes" : {
                        "POSITION" : 0,
                        "NORMAL" : 1,
                        "TEXCOORD_0" : 2
                    },
                    "indices" : 3,
                    "material" : 0
                },
                {
                    "attributes" : {
                        "POSITION" : 4,
                        "NORMAL" : 5,
                        "TEXCOORD_0" : 6
                    },
                    "indices" : 7,
                    "material" : 1
                },
                {
                    "attributes" : {
                        "POSITION" : 8,
                        "NORMAL" : 9,
                        "TEXCOORD_0" : 10
                    },
                    "indices" : 11,
                    "material" : 2
                }
            ]
        }
    ],
    "accessors" : [
        {
            "bufferView" : 0,
            "componentType" : 5126,
            "count" : 3303,
            "max" : [
                15.306235313415527,
                10.020000457763672,
                3.3740363121032715
            ],
            "min" : [
                -1.0000005960464478,
                0,
                -9.150964736938477
            ],
            "type" : "VEC3"
        },
        {
            "bufferView" : 1,
            "componentType" : 5126,
            "count" : 3303,
            "type" : "VEC3"
        },
        {
            "bufferView" : 2,
            "componentType" : 5126,
            "count" : 3303,
            "type" : "VEC2"
        },
        {
            "bufferView" : 3,
            "componentType" : 5123,
            "count" : 5040,
            "type" : "SCALAR"
        },
        {
            "bufferView" : 4,
            "componentType" : 5126,
            "count" : 41224,
            "max" : [
                16.901325225830078,
                10.010000228881836,
                3.36153507232666
            ],
            "min" : [
                -5.88273811340332,
                0.01000070571899414,
                -9.13846492767334
            ],
            "type" : "VEC3"
        },
        {
            "bufferView" : 5,
            "componentType" : 5126,
            "count" : 41224,
            "type" : "VEC3"
        },
        {
            "bufferView" : 6,
            "componentType" : 5126,
            "count" : 41224,
            "type" : "VEC2"
        },
        {
            "bufferView" : 7,
            "componentType" : 5123,
            "count" : 62436,
            "type" : "SCALAR"
        },
        {
            "bufferView" : 8,
            "componentType" : 5126,
            "count" : 24,
            "max" : [
                17.151325225830078,
                10.010000228881836,
                3.36153507232666
            ],
            "min" : [
                16.651325225830078,
                0.01000070571899414,
                -9.13846492767334
            ],
            "type" : "VEC3"
        },
        {
            "bufferView" : 9,
            "componentType" : 5126,
            "count" : 24,
            "type" : "VEC3"
        },
        {
            "bufferView" : 10,
            "componentType" : 5126,
            "count" : 24,
            "type" : "VEC2"
        },
        {
            "bufferView" : 11,
            "componentType" : 5123,
            "count" : 36,
            "type" : "SCALAR"
        }
    ],
    "bufferViews" : [
        {
            "buffer" : 0,
            "byteLength" : 39636,
            "byteOffset" : 0
        },
        {
            "buffer" : 0,
            "byteLength" : 39636,
            "byteOffset" : 39636
        },
        {
            "buffer" : 0,
            "byteLength" : 26424,
            "byteOffset" : 79272
        },
        {
            "buffer" : 0,
            "byteLength" : 10080,
            "byteOffset" : 105696
        },
        {
            "buffer" : 0,
            "byteLength" : 494688,
            "byteOffset" : 115776
        },
        {
            "buffer" : 0,
            "byteLength" : 494688,
            "byteOffset" : 610464
        },
        {
            "buffer" : 0,
            "byteLength" : 329792,
            "byteOffset" : 1105152
        },
        {
            "buffer" : 0,
            "byteLength" : 124872,
            "byteOffset" : 1434944
        },
        {
            "buffer" : 0,
            "byteLength" : 288,
            "byteOffset" : 1559816
        },
        {
            "buffer" : 0,
            "byteLength" : 288,
            "byteOffset" : 1560104
        },
        {
            "buffer" : 0,
            "byteLength" : 192,
            "byteOffset" : 1560392
        },
        {
            "buffer" : 0,
            "byteLength" : 72,
            "byteOffset" : 1560584
        }
    ],
    "buffers" : [
        {
            "byteLength" : 1560656,
            "uri" : "data:application/octet-stream;base64,"
        }
    ]
}
